PathFileType	4	(X/Y/Z)	/private/var/folders/ty/39vw2z0n5t95rf49mx2f_75w0000gn/T/tmpv4vay5ru_Sports2D/tmpv4vay5ru_Sports2D_px_person00.trc
DataRate	CameraRate	NumFrames	NumMarkers	Units	OrigDataRate	OrigDataStartFrame	OrigNumFrames
60	60	10	22	m	60	192	220
Frame#	Time	Hip			RHip			RKnee			RAnkle			RBigToe			RSmallToe			RHeel			LHip			LKnee			LAnkle			LBigToe			LSmallToe			LHeel			Neck			Head			Nose			RShoulder			RElbow			RWrist			LShoulder			LElbow			LWrist		
		X1	Y1	Z1	X2	Y2	Z2	X3	Y3	Z3	X4	Y4	Z4	X5	Y5	Z5	X6	Y6	Z6	X7	Y7	Z7	X8	Y8	Z8	X9	Y9	Z9	X10	Y10	Z10	X11	Y11	Z11	X12	Y12	Z12	X13	Y13	Z13	X14	Y14	Z14	X15	Y15	Z15	X16	Y16	Z16	X17	Y17	Z17	X18	Y18	Z18	X19	Y19	Z19	X20	Y20	Z20	X21	Y21	Z21	X22	Y22	Z22
192	3.2	399.319926237942	568.9143985553263	0.0	419.546839709316	561.6792813870742	0.0	406.39790208860774	687.38755585185	0.0	477.42624030385184	783.6546255452749	0.0	442.2313598530488	812.8190821891582	0.0	452.0666475893322	811.0092760409766	0.0	494.38173007113426	798.7632373665009	0.0	378.94953276164813	563.431304613421	0.0	333.01497297982615	684.7756887108521	0.0	427.6940855402871	733.2288038583205	0.0	432.21422585247444	785.5262835775292	0.0	433.8032648530874	778.3954148703806	0.0	443.8366735107516	733.4074469177075	0.0	360.8069914440419	421.5950150607032	0.0	337.6402102674855	335.73839719792824	0.0	325.650556097563	383.91682281599685	0.0	394.69736517171907	438.8706062110232	0.0	420.2087441313514	511.73823721318126	0.0	373.6516771963523	551.0833623762497	0.0	330.3427507673597	438.4062937000267	0.0	345.4835971336463	499.9574515414513	0.0	328.5683583742274	578.2862643276267	0.0
193	3.216666666666667	374.43388992688784	569.9519430323096	0.0	394.8248400789799	562.9939321574167	0.0	388.8588025117751	688.1634612929731	0.0	464.0930784337329	780.2691925247858	0.0	432.00896405716594	812.0251004784567	0.0	450.2934967474799	810.6984244856906	0.0	487.89698048630964	794.4451907015302	0.0	354.3484200163195	564.5873509619171	0.0	300.5060190930998	676.3866493006258	0.0	385.32148743260683	739.7436814821895	0.0	367.22072166487925	789.1586585575075	0.0	369.4897142997516	784.5994239754357	0.0	401.1107660427223	743.9081310048526	0.0	338.9841898789602	420.5116468627344	0.0	317.97590491949063	335.83537326502176	0.0	305.13473254110045	383.38577458537895	0.0	370.69133735536803	437.5345950192127	0.0	384.35588851815896	510.7665075259238	0.0	331.5838726917307	544.924879971619	0.0	311.9451845073884	437.0200659535219	0.0	334.40227249471553	494.12335621147446	0.0	319.4244235557607	573.7800103270295	0.0
194	3.2333333333333334	349.09784326040005	570.9185436271551	0.0	368.9051476125975	564.5458064987611	0.0	362.07819845815516	686.528475532227	0.0	437.06819893142466	775.6746214880986	0.0	407.1926027607643	809.5442617824771	0.0	439.13989153769745	808.2368930736255	0.0	472.1669699561208	789.0476489108127	0.0	330.9234473419022	566.170466475308	0.0	275.82006406945794	668.86415813212	0.0	354.5938271444923	745.8028335243301	0.0	307.7388761519064	791.0872088799902	0.0	311.57300458563304	788.8659985037364	0.0	370.49778907455584	753.3370457395421	0.0	316.99335530703223	419.10410593025694	0.0	298.06427712211473	336.29576158093573	0.0	284.43125785216796	382.8165120714916	0.0	346.5863587332942	435.7898957036255	0.0	348.80369129842484	508.6170530860952	0.0	292.0367490029627	535.0003807118244	0.0	294.5936836205644	435.4126802660615	0.0	322.0866095124486	488.98128963989376	0.0	308.29821046103496	569.102855941134	0.0
195	3.25	323.31012030845045	571.6183748961346	0.0	341.53818771247296	566.0811910487183	0.0	324.6163131488251	682.9363415070146	0.0	393.7496069618401	770.0831969934105	0.0	364.6322951374466	804.8240880957086	0.0	413.9578740928671	802.986301245644	0.0	443.78627457731835	782.7763384594734	0.0	308.7055087918391	567.7006538785088	0.0	259.5230019971146	663.6648410458814	0.0	337.9479382928742	749.981739331687	0.0	258.3138160819325	790.4699861589303	0.0	265.57482770693827	789.7394072442717	0.0	354.6274160615892	759.5402220097349	0.0	294.9400842279178	417.68758955252514	0.0	277.8729699732164	337.06751019833433	0.0	263.57232362423383	382.37242492647056	0.0	322.2470657121554	433.8554730383703	0.0	314.4135642130858	505.8417468041303	0.0	256.1086531974812	522.949396564005	0.0	278.12369701951167	433.71487487485865	0.0	308.28916398347974	485.1472638618413	0.0	294.65246079950305	564.9746037602786	0.0
196	3.2666666666666666	297.34355117892903	571.8822513721302	0.0	312.9847212374238	567.1573438811939	0.0	279.03275664312395	678.4768420316828	0.0	337.78194930809985	763.350422697598	0.0	308.44348530883946	797.537291307966	0.0	373.2249809550294	794.6219066409291	0.0	401.83778543978127	775.0633468176328	0.0	287.3283955940631	568.5524198970262	0.0	248.3343456194462	661.3771311933247	0.0	331.73588028077575	751.6701328935247	0.0	220.42372283575435	787.2299736441204	0.0	234.53611478937077	786.7185807818983	0.0	349.77758693536344	761.7412932384101	0.0	273.0223559862432	416.57083709609043	0.0	257.3592621344326	338.17233892769224	0.0	242.54983013049835	382.19591329851625	0.0	297.80089788807953	432.01900674132503	0.0	282.62068655965044	502.9928590764495	0.0	224.71748585055064	511.5256437124495	0.0	262.0196013164981	432.13434921055267	0.0	292.86839809961924	483.0197714578782	0.0	278.05094961100616	561.993838909743	0.0
197	3.283333333333333	271.73668567570286	571.7180305555476	0.0	284.4562284392899	567.4874846398247	0.0	233.99818868520364	674.9937944720973	0.0	282.24965031264037	754.9232707656714	0.0	253.7030841237796	787.8769647675673	0.0	323.1831907997379	783.5599248123157	0.0	351.82351801429076	764.5020547253566	0.0	265.747181034555	568.4465964001513	0.0	233.8757662280097	661.384618038531	0.0	323.259914962221	751.6387632051033	0.0	190.25612586188612	781.9124926266319	0.0	216.6667228409556	780.4219921598558	0.0	342.76214234953693	761.2199519723613	0.0	251.4432672571899	415.94346736884256	0.0	236.3901479530791	339.70230467170495	0.0	221.28031394233668	382.33638129521984	0.0	273.6669365307636	430.61611111349725	0.0	255.4857639126123	500.7231269567921	0.0	198.54713686006664	503.748805410472	0.0	245.34002850263207	430.97200354812696	0.0	275.5584450859325	482.89782884625964	0.0	258.10905411933453	560.6975043034263	0.0
198	3.3	247.07186331530764	571.3797795852945	0.0	257.9836648772243	567.2265370875309	0.0	200.79273465141353	674.4227463529697	0.0	244.87854047208853	744.1518737258605	0.0	221.0807559892251	776.4693755406769	0.0	280.1479980281004	770.9832191756415	0.0	307.56484802154176	749.7017919547243	0.0	242.64232834788507	567.6850396396603	0.0	207.51707315030635	662.3102443926967	0.0	295.61059139213523	751.9366079164305	0.0	160.22642056828855	775.7384162231799	0.0	206.21200370533353	772.6156246659776	0.0	315.9844882644797	761.0663973984306	0.0	230.31141642235167	415.878414150092	0.0	214.85828884882434	341.7403933340253	0.0	199.70346575824956	382.787091418862	0.0	250.42405053136102	430.01320723063947	0.0	234.5906447536261	499.7952874054537	0.0	177.6329457383556	502.1705233319046	0.0	227.02477586446798	430.55843628064605	0.0	255.95932489299835	485.0740883739606	0.0	234.55494369894203	561.4815199463909	0.0
199	3.3166666666666664	223.64689541640504	571.2948491297716	0.0	234.97501377372845	566.9895705718291	0.0	184.7140468570652	677.4919572099532	0.0	235.21135070515606	731.0600563152258	0.0	221.78898583235582	764.2565235919267	0.0	260.8841195451749	758.3343325228711	0.0	283.1718088978493	730.9338093632474	0.0	217.46279944254982	567.0208014264878	0.0	168.67646899533392	663.2425012882387	0.0	240.59818446740599	754.6194723867633	0.0	127.53101757430105	770.6877503255736	0.0	200.54131559874114	765.8876244055077	0.0	260.9794799808243	764.3996401700716	0.0	209.60457935467846	416.44293638685133	0.0	192.92026181405996	344.2112722230234	0.0	177.9151066258203	383.6080741734569	0.0	228.6531242190826	430.55839762888246	0.0	219.82992198207262	500.7874768356317	0.0	161.4034464027224	508.250437040192	0.0	206.5164094171724	431.1413302626417	0.0	233.75563122125158	489.5464114409013	0.0	207.41276157788863	564.4575122996752	0.0
200	3.3333333333333335	201.30227865917877	571.8519106313423	0.0	214.95689468205356	567.60117558296	0.0	180.48560573712243	683.1526088137489	0.0	246.2166433287899	717.0727276920227	0.0	247.04511638707046	752.5645329297985	0.0	266.1733417547125	746.9003518989383	0.0	279.3765651110484	711.0220004007423	0.0	190.89925605969154	567.341153458226	0.0	125.15220025859807	664.4788307714867	0.0	167.28865011823848	760.1766099535424	0.0	98.59877748773863	768.9721468740995	0.0	201.11190936469436	762.7823552126163	0.0	187.20367005152585	771.9400508242986	0.0	189.16663236726168	417.77633424721046	0.0	171.03137443070855	346.8324962758554	0.0	156.12165094675382	384.93936187784726	0.0	208.59616598874422	432.44855105639266	0.0	208.98485885140286	503.73202696957264	0.0	148.88734808873906	521.4878421331968	0.0	184.0107190961069	432.8348640788323	0.0	208.85815779955558	495.84426672047607	0.0	177.14059127694676	569.3521183694444	0.0
201	3.35	179.63798168453368	573.2375716776301	0.0	196.31705399370003	569.6880465251182	0.0	177.13041426778932	689.4035263308903	0.0	260.46751667461757	704.6502422820099	0.0	274.9788842392284	742.9697047494647	0.0	280.09736138456503	737.7327007890997	0.0	283.04893168361025	694.1225126454052	0.0	164.2296117227669	569.2591144782897	0.0	85.25017321855623	666.6840236030879	0.0	95.44299502471182	767.2831469170347	0.0	79.29831367423087	771.7803056799622	0.0	202.35500606364693	764.7064512067906	0.0	114.91554596205411	781.546388805225	0.0	168.79846926373784	420.0111359429728	0.0	149.67585181123707	349.2785848058857	0.0	134.5198278621535	386.87600098831047	0.0	189.95356766226254	435.620659786109	0.0	198.76302565722148	508.11525350893106	0.0	138.81271436190636	538.748226766449	0.0	160.07614736511718	435.65663714476983	0.0	181.3415988435693	503.2129941762474	0.0	144.66004609626148	575.4572520791035	0.0
